<?xml version="1.0" standalone="no"?>
<!DOCTYPE svg PUBLIC "-//W3C//DTD SVG 20010904//EN"
 "http://www.w3.org/TR/2001/REC-SVG-20010904/DTD/svg10.dtd">
<svg version="1.0" xmlns="http://www.w3.org/2000/svg"
 width="7972.000000pt" height="7972.000000pt" viewBox="0 0 7972.000000 7972.000000"
 preserveAspectRatio="xMidYMid meet">

<g transform="translate(0.000000,7972.000000) scale(0.100000,-0.100000)"
fill="#000000" stroke="none">
<path d="M28300 74319 c-2496 -141 -4765 -1044 -6656 -2646 -466 -395 -1006
-946 -1409 -1438 -138 -168 -424 -549 -553 -735 -1578 -2291 -2239 -5102
-1851 -7875 234 -1670 837 -3245 1783 -4655 412 -614 868 -1166 1401 -1695
840 -835 1785 -1517 2844 -2052 l243 -123 -1426 0 -1426 0 0 -1084 0 -1084
-577 -5 c-479 -3 -595 -7 -678 -21 -385 -64 -709 -198 -1009 -417 -131 -96
-372 -336 -470 -468 -238 -321 -385 -690 -432 -1081 -11 -95 -13 -671 -14
-3368 l0 -3252 -37 5 c-21 3 -2125 199 -4675 436 l-4637 430 -2778 714 c-1528
392 -2779 712 -2781 711 -1 -2 -1 -1483 0 -3292 l3 -3289 2776 671 2777 671
4668 -418 c2568 -230 4672 -418 4676 -419 5 0 9 -4166 11 -9257 2 -8841 3
-9262 20 -9353 79 -420 244 -782 489 -1075 95 -114 280 -292 382 -369 332
-249 733 -406 1140 -445 76 -8 2135 -11 6748 -11 l6638 0 0 -1990 0 -1990
6725 0 c4721 0 6725 -3 6725 -11 0 -5 -25 -67 -56 -137 -405 -914 -535 -1949
-368 -2946 13 -81 29 -169 35 -194 5 -25 6 -48 2 -52 -4 -4 -938 -238 -2075
-521 l-2066 -513 -62 58 c-185 171 -401 285 -635 336 -137 30 -331 37 -460 16
-55 -8 -1475 -357 -3155 -774 -1680 -418 -3565 -886 -4189 -1041 -624 -155
-1164 -294 -1200 -308 -182 -72 -321 -162 -457 -298 -487 -485 -525 -1241 -88
-1774 192 -234 484 -403 788 -456 111 -19 324 -19 436 -1 47 8 1480 361 3185
785 1705 423 3589 891 4187 1040 769 191 1112 280 1175 306 352 146 621 433
749 800 15 44 28 81 29 82 1 2 953 239 2116 528 1163 289 2121 528 2130 530
13 5 32 -23 84 -121 251 -474 535 -857 929 -1249 271 -271 493 -455 776 -645
361 -243 826 -471 1235 -608 1540 -514 3229 -285 4566 619 565 382 1065 890
1442 1464 727 1108 1001 2467 762 3782 -72 394 -221 870 -376 1202 -21 46 -39
88 -39 92 0 5 614 9 1380 9 l1380 0 0 1989 0 1990 718 4 c665 4 725 6 827 24
397 73 739 225 1039 460 99 78 310 292 383 388 267 354 424 752 462 1175 8 78
11 1476 11 4363 l0 4247 2734 0 2735 0 3 24 c3 22 193 -61 3813 -1655 2096
-924 3838 -1688 3873 -1700 93 -31 205 -48 317 -49 180 0 303 46 399 151 63
67 99 138 129 252 l22 82 0 7990 0 7990 -22 87 c-56 220 -177 349 -369 394
-100 23 -297 14 -421 -20 -87 -24 -644 -268 -6458 -2828 -687 -303 -1258 -553
-1267 -555 -12 -4 -18 0 -18 11 0 15 -223 16 -2735 16 l-2735 0 -3 5013 c-2
4730 -4 5018 -20 5112 -86 490 -282 887 -604 1225 -342 360 -778 586 -1303
677 -100 17 -315 18 -4492 20 l-4388 3 0 550 0 550 68 0 c143 0 606 21 792 35
3381 266 6400 2006 8337 4805 1085 1568 1756 3445 1918 5365 38 451 49 1106
25 1530 -64 1173 -299 2291 -710 3380 -215 569 -515 1190 -833 1725 -489 820
-1028 1513 -1711 2196 -557 556 -1057 966 -1711 1403 -1519 1014 -3262 1635
-5080 1810 -420 41 -541 46 -1090 46 -549 0 -670 -5 -1090 -46 -2094 -202
-4096 -1001 -5759 -2298 -594 -462 -1186 -1032 -1667 -1601 -828 -981 -1480
-2091 -1923 -3273 -401 -1071 -632 -2180 -696 -3342 -14 -256 -15 -903 0
-1155 65 -1171 296 -2279 697 -3343 74 -197 174 -443 232 -571 l30 -66 -1255
0 -1254 0 14 33 c542 1247 832 2413 932 3747 34 462 29 1192 -12 1685 -156
1886 -771 3665 -1810 5235 -966 1462 -2259 2671 -3794 3549 -273 157 -819 427
-1115 553 -704 301 -1409 521 -2143 672 -494 102 -935 161 -1527 207 -182 14
-1095 20 -1295 8z m8180 -20254 l0 -965 -1417 0 -1418 0 260 133 c940 481
1732 1031 2520 1750 28 26 51 46 53 47 1 0 2 -434 2 -965z m7978 672 c358
-309 693 -563 1087 -826 402 -268 705 -446 1140 -668 l280 -142 -1347 -1
-1348 0 0 895 c0 492 2 895 5 895 3 0 85 -69 183 -153z"/>
</g>
</svg>
